HIERARCHY
ROOT Hips
{
	OFFSET 0.00000 0.00000 0.00000
	CHANNELS 6 Xposition Yposition Zposition Zrotation Yrotation Xrotation 
	JOINT RightUpLegDummy
	{
		OFFSET 0 0 0
		CHANNELS 3 Zrotation Yrotation Xrotation
		JOINT RightUpLeg
		{
			OFFSET -3.52197 -3.41223 0.04002
			CHANNELS 3 Zrotation Yrotation Xrotation
			JOINT RightLeg
			{
				OFFSET 0.00006 -17.42390 1.60435
				CHANNELS 3 Zrotation Yrotation Xrotation
				JOINT RightFoot
				{
					OFFSET 0.06154 -16.50078 -1.63900
					CHANNELS 3 Zrotation Yrotation Xrotation
					JOINT RightToes
					{
						OFFSET 0.00298 -1.73825 3.34613
						CHANNELS 3 Zrotation Yrotation Xrotation
						End Site
						{
							OFFSET 0.00480 -0.05416 3.85043
						}
					}
				}
			}
		}
	}
	JOINT SpineDummy
	{
		OFFSET 0 0 0
		CHANNELS 3 Zrotation Yrotation Xrotation
		JOINT Spine
		{
			OFFSET 0.00000 4.68130 0.00000
			CHANNELS 3 Zrotation Yrotation Xrotation
			JOINT Spine1
			{
				OFFSET -0.00000 10.10138 0.05002
				CHANNELS 3 Zrotation Yrotation Xrotation
				JOINT HEadDummy
				{
					OFFSET 0 0 0
					CHANNELS 3 Zrotation Yrotation Xrotation
					JOINT Head
					{
						OFFSET -0.00000 3.43865 0.00438
						CHANNELS 3 Zrotation Yrotation Xrotation
						End Site
						{
							OFFSET -0.11417 5.02924 0.98962
						}
					}
				}
				JOINT LeftShoulder1Dummy
				{
					OFFSET 0 0 0
					CHANNELS 3 Zrotation Yrotation Xrotation
					JOINT LeftShoulder1
					{
						OFFSET 3.53937 -0.14262 -0.08662
						CHANNELS 3 Zrotation Yrotation Xrotation
						JOINT LeftArm
						{
							OFFSET 4.04833 -0.00133 0.12681
							CHANNELS 3 Zrotation Yrotation Xrotation
							JOINT LeftForeArm
							{
								OFFSET 10.33880 -0.01036 -0.55515
								CHANNELS 3 Zrotation Yrotation Xrotation
								JOINT LeftHand
								{
									OFFSET 8.69677 0.07543 0.40060
									CHANNELS 3 Zrotation Yrotation Xrotation
									End Site
									{
										OFFSET 5.28377 -0.21905 0.59205
									}
								}
							}
						}
					}
				}
				JOINT RightShoulderDummy
				{
					OFFSET 0 0 0
					CHANNELS 3 Zrotation Yrotation Xrotation
					JOINT RightShoulder
					{
						OFFSET -3.53937 -0.14262 -0.08660
						CHANNELS 3 Zrotation Yrotation Xrotation
						JOINT RightArm
						{
							OFFSET -4.04833 -0.00133 0.12683
							CHANNELS 3 Zrotation Yrotation Xrotation
							JOINT RightForeArm
							{
								OFFSET -10.37987 -0.01039 -0.55511
								CHANNELS 3 Zrotation Yrotation Xrotation
								JOINT RightHand
								{
									OFFSET -8.67398 0.07538 0.40058
									CHANNELS 3 Zrotation Yrotation Xrotation
									End Site
									{
										OFFSET -5.24810 -0.21916 0.59204
									}
								}
							}
						}
					}
				}
			}
		}
	}
	JOINT LeftUpLegDummy
	{
		OFFSET 0 0 0
		CHANNELS 3 Zrotation Yrotation Xrotation
		JOINT LeftUpLeg
		{
			OFFSET 3.52197 -3.41223 0.04002
			CHANNELS 3 Zrotation Yrotation Xrotation
			JOINT LeftLeg
			{
				OFFSET -0.00012 -17.42399 1.60337
				CHANNELS 3 Zrotation Yrotation Xrotation
				JOINT LeftFoot
				{
					OFFSET -0.09972 -16.50070 -1.63802
					CHANNELS 3 Zrotation Yrotation Xrotation
					JOINT LeftToes
					{
						OFFSET -0.01575 -1.73823 3.34611
						CHANNELS 3 Zrotation Yrotation Xrotation
						End Site
						{
							OFFSET 0.03150 -0.01868 3.85031
						}
					}
				}
			}
		}
	}
}
MOTION
Frames: 7
Frame Time: 0.033333
-6.3149 38.9898 5.2196 -179.2460 32.6836 -176.4840 0.0000 0.0000 0.0000 -4.6800 -8.6656 -9.8008 -7.6592 -14.6628 21.7002 14.2673 -0.3104 -9.1345 -0.0000 -0.0000 0.0000 0.0000 0.0000 0.0000 0.0822 1.8909 1.6270 -4.0049 4.2118 29.5088 0.0000 0.0000 0.0000 -11.0005 23.4561 -21.1889 0.0000 0.0000 0.0000 -14.6933 -10.0756 2.9272 -52.3177 -14.8755 22.3804 -21.7166 -87.5803 11.5993 18.9840 1.3972 -0.6604 0.0000 0.0000 0.0000 12.3725 3.6503 1.3916 60.6002 14.2884 29.4857 176.5207 72.1934 162.4906 -3.4299 0.1841 -0.1623 0.0000 0.0000 0.0000 8.3366 1.3037 -15.0296 3.2666 5.5448 22.1839 -8.7566 0.2819 -8.3069 -0.0000 -0.0000 -0.0000
-6.2053 38.9031 5.3666 -178.9460 32.3380 -176.5230 0.0000 0.0000 0.0000 -4.1217 -9.0159 -10.1128 -7.9027 -14.4781 22.7208 14.2159 -0.2426 -9.6869 -0.0000 -0.0000 0.0000 0.0000 0.0000 0.0000 0.2506 1.7252 1.8414 -3.6361 3.8714 29.6228 0.0000 0.0000 0.0000 -11.1410 23.6238 -21.2592 0.0000 0.0000 0.0000 -14.8955 -10.0655 2.9500 -52.6298 -14.9093 22.5108 -19.8874 -87.4206 10.2980 20.1806 0.9051 -0.7868 0.0000 0.0000 0.0000 12.5012 3.6754 1.4048 60.2765 14.4864 29.2995 176.4515 72.1010 161.8008 -3.3655 0.0778 -0.1570 0.0000 0.0000 0.0000 8.9407 1.0650 -15.4611 3.2863 5.3702 23.0954 -9.0034 0.2683 -8.5835 -0.0000 -0.0000 -0.0000
-5.9954 38.7532 5.6190 -178.6210 31.9533 -176.8470 0.0000 0.0000 0.0000 -3.3542 -9.4777 -10.5388 -8.2842 -14.0886 24.5452 14.0797 -0.1212 -10.6841 -0.0000 -0.0000 0.0000 0.0000 0.0000 0.0000 0.3112 1.5598 2.1413 -2.9195 3.3893 30.0769 0.0000 0.0000 0.0000 -11.2887 23.9606 -21.3274 0.0000 0.0000 0.0000 -15.2747 -10.1053 3.0059 -53.2895 -14.9497 22.8456 -16.3697 -87.0277 7.6742 22.6182 0.1059 -1.0342 0.0000 0.0000 0.0000 12.8330 3.7683 1.4449 59.5280 14.8060 28.7152 176.2509 72.0624 160.0913 -3.8031 -0.0160 -0.1753 0.0000 0.0000 0.0000 9.8348 0.6612 -15.8742 3.3589 5.1941 24.4812 -9.4347 0.2421 -9.0628 -0.0000 -0.0000 -0.0000
-5.7745 38.6361 5.8285 -178.5160 32.0275 -177.4730 0.0000 0.0000 0.0000 -2.8706 -9.5109 -10.5875 -8.5552 -13.7431 25.9971 13.8744 -0.0181 -11.5476 -0.0000 -0.0000 0.0000 0.0000 0.0000 0.0000 0.2930 1.5877 2.3043 -2.3690 3.2092 30.7815 0.0000 0.0000 0.0000 -11.2425 24.3819 -21.1185 0.0000 0.0000 0.0000 -15.7581 -10.1442 3.0748 -53.9480 -14.8040 23.3279 -14.1310 -86.6627 5.9495 25.0259 -0.4661 -1.2672 0.0000 0.0000 0.0000 13.2272 3.8880 1.4950 58.7509 14.8766 27.9317 176.0002 72.1685 158.1650 -4.6310 -0.0476 -0.2124 0.0000 0.0000 0.0000 10.4810 0.4812 -15.6323 3.4723 5.2032 25.3564 -9.8664 0.2186 -9.4633 -0.0000 -0.0000 -0.0000
-5.5894 38.5998 5.9395 -178.5370 32.5218 -178.1150 0.0000 0.0000 0.0000 -2.6462 -9.0799 -10.1788 -8.6349 -13.6139 26.4803 13.6735 0.0310 -11.9731 -0.0000 -0.0000 0.0000 0.0000 0.0000 0.0000 0.4952 1.7335 2.2660 -2.3007 3.3933 31.3944 0.0000 0.0000 0.0000 -11.0217 24.8759 -20.5592 0.0000 0.0000 0.0000 -16.2785 -10.0614 3.1208 -54.4271 -14.2852 23.9453 -14.0017 -86.6223 5.7730 26.7998 -0.7421 -1.4240 0.0000 0.0000 0.0000 13.5900 3.9351 1.5290 58.2369 14.4878 27.4227 175.8653 72.2092 157.0999 -5.1317 -0.0539 -0.2351 0.0000 0.0000 0.0000 10.8396 0.6836 -14.8663 3.5436 5.2892 25.5154 -10.2564 0.2180 -9.5471 -0.0000 -0.0000 -0.0000
-5.4400 38.6287 5.9894 -178.5920 33.0133 -178.4540 0.0000 0.0000 0.0000 -2.5001 -8.6049 -9.7082 -8.5787 -13.6658 26.2099 13.5266 0.0343 -12.0095 -0.0000 -0.0000 0.0000 0.0000 0.0000 0.0000 0.8610 1.8178 2.0413 -2.4983 3.6271 31.6182 0.0000 0.0000 0.0000 -10.8097 25.4483 -19.8765 0.0000 0.0000 0.0000 -16.7484 -9.8531 3.1305 -54.8393 -13.3660 24.6643 -15.5568 -86.9312 7.1933 28.3704 -1.0003 -1.5745 0.0000 0.0000 0.0000 13.8763 3.8877 1.5386 57.9686 13.7369 27.4562 175.9545 71.9392 157.4127 -4.9516 -0.0081 -0.2284 0.0000 0.0000 0.0000 11.0659 0.9679 -14.2474 3.5322 5.3114 25.3236 -10.7069 0.2580 -9.1737 -0.0000 -0.0000 -0.0000
-5.3200 38.6968 6.0158 -178.8040 33.2780 -178.5080 0.0000 0.0000 0.0000 -2.5003 -8.4043 -9.4496 -8.4258 -13.7417 25.5934 13.4061 0.0116 -11.8163 -0.0000 -0.0000 0.0000 0.0000 0.0000 0.0000 1.0443 1.7880 1.6798 -2.6537 3.6895 31.4763 0.0000 0.0000 0.0000 -10.7104 26.0324 -19.3233 0.0000 0.0000 0.0000 -17.0776 -9.6430 3.1210 -55.2858 -12.2073 25.3348 -18.5549 -87.4173 10.2090 30.0877 -1.3768 -1.7717 0.0000 0.0000 0.0000 14.0227 3.8110 1.5324 57.8380 12.8715 27.8709 176.2128 71.3709 158.7435 -4.4709 0.1338 -0.2105 0.0000 0.0000 0.0000 11.1045 0.9678 -14.0370 3.5298 5.3861 24.9666 -11.2817 0.3432 -8.3740 -0.0000 -0.0000 -0.0000
